# Blender 3.6.3
# www.blender.org
mtllib arrow.mtl
o Cone
v 0.000000 -1.229587 -0.471198
v -0.302880 -1.229587 -0.360959
v -0.464040 -1.229587 -0.081823
v -0.408070 -1.229587 0.235599
v -0.161159 -1.229587 0.442782
v 0.161159 -1.229587 0.442782
v 0.408070 -1.229587 0.235599
v 0.464040 -1.229587 -0.081823
v 0.302880 -1.229587 -0.360959
v 0.000000 -2.171984 -0.000000
vn -0.3096 -0.4252 -0.8505
vn -0.7838 -0.4252 -0.4525
vn -0.8913 -0.4252 0.1572
vn -0.5818 -0.4252 0.6933
vn -0.0000 -0.4252 0.9051
vn 0.5818 -0.4252 0.6933
vn 0.8913 -0.4252 0.1572
vn -0.0000 1.0000 -0.0000
vn 0.7838 -0.4252 -0.4525
vn 0.3096 -0.4252 -0.8505
vt 0.250000 0.490000
vt 0.250000 0.250000
vt 0.404269 0.433851
vt 0.486354 0.291676
vt 0.457846 0.130000
vt 0.332085 0.024474
vt 0.167915 0.024474
vt 0.042154 0.130000
vt 0.013646 0.291676
vt 0.750000 0.490000
vt 0.904269 0.433851
vt 0.986354 0.291676
vt 0.957846 0.130000
vt 0.832085 0.024474
vt 0.667915 0.024474
vt 0.542154 0.130000
vt 0.513646 0.291676
vt 0.595731 0.433851
vt 0.095731 0.433851
s 0
f 1/1/1 10/2/1 2/3/1
f 2/3/2 10/2/2 3/4/2
f 3/4/3 10/2/3 4/5/3
f 4/5/4 10/2/4 5/6/4
f 5/6/5 10/2/5 6/7/5
f 6/7/6 10/2/6 7/8/6
f 7/8/7 10/2/7 8/9/7
f 1/10/8 2/11/8 3/12/8 4/13/8 5/14/8 6/15/8 7/16/8 8/17/8 9/18/8
f 8/9/9 10/2/9 9/19/9
f 9/19/10 10/2/10 1/1/10
o Cylinder
v 0.000000 0.516194 -0.184147
v 0.000000 -1.483806 -0.184147
v -0.099557 0.516194 -0.154914
v -0.099557 -1.483806 -0.154914
v -0.167506 0.516194 -0.076497
v -0.167506 -1.483806 -0.076497
v -0.182272 0.516194 0.026207
v -0.182272 -1.483806 0.026207
v -0.139169 0.516194 0.120590
v -0.139169 -1.483806 0.120590
v -0.051880 0.516194 0.176688
v -0.051880 -1.483806 0.176688
v 0.051880 0.516194 0.176688
v 0.051880 -1.483806 0.176688
v 0.139169 0.516194 0.120590
v 0.139169 -1.483806 0.120590
v 0.182272 0.516194 0.026207
v 0.182272 -1.483806 0.026207
v 0.167506 0.516194 -0.076497
v 0.167506 -1.483806 -0.076497
v 0.099557 0.516194 -0.154914
v 0.099557 -1.483806 -0.154914
vn -0.2817 -0.0000 -0.9595
vn -0.7557 -0.0000 -0.6549
vn -0.9898 -0.0000 -0.1423
vn -0.9096 -0.0000 0.4154
vn -0.5406 -0.0000 0.8413
vn -0.0000 -0.0000 1.0000
vn 0.5406 -0.0000 0.8413
vn 0.9096 -0.0000 0.4154
vn 0.9898 -0.0000 -0.1423
vn -0.0000 -1.0000 -0.0000
vn 0.7557 -0.0000 -0.6549
vn 0.2817 -0.0000 -0.9595
vn -0.0000 1.0000 -0.0000
vt 1.000000 0.500000
vt 1.000000 1.000000
vt 0.909091 1.000000
vt 0.909091 0.500000
vt 0.818182 1.000000
vt 0.818182 0.500000
vt 0.727273 1.000000
vt 0.727273 0.500000
vt 0.636364 1.000000
vt 0.636364 0.500000
vt 0.545454 1.000000
vt 0.545454 0.500000
vt 0.454545 1.000000
vt 0.454545 0.500000
vt 0.363636 1.000000
vt 0.363636 0.500000
vt 0.272727 1.000000
vt 0.272727 0.500000
vt 0.181818 1.000000
vt 0.181818 0.500000
vt 0.379754 0.451901
vt 0.250000 0.490000
vt 0.120246 0.451901
vt 0.031688 0.349700
vt 0.012443 0.215844
vt 0.068620 0.092833
vt 0.182384 0.019722
vt 0.317616 0.019722
vt 0.431380 0.092833
vt 0.487557 0.215844
vt 0.468312 0.349700
vt 0.090909 1.000000
vt 0.090909 0.500000
vt -0.000000 1.000000
vt -0.000000 0.500000
vt 0.750000 0.490000
vt 0.879754 0.451901
vt 0.968312 0.349700
vt 0.987557 0.215844
vt 0.931380 0.092833
vt 0.817616 0.019722
vt 0.682384 0.019722
vt 0.568620 0.092833
vt 0.512443 0.215844
vt 0.531688 0.349700
vt 0.620246 0.451901
s 0
f 11/20/11 12/21/11 14/22/11 13/23/11
f 13/23/12 14/22/12 16/24/12 15/25/12
f 15/25/13 16/24/13 18/26/13 17/27/13
f 17/27/14 18/26/14 20/28/14 19/29/14
f 19/29/15 20/28/15 22/30/15 21/31/15
f 21/31/16 22/30/16 24/32/16 23/33/16
f 23/33/17 24/32/17 26/34/17 25/35/17
f 25/35/18 26/34/18 28/36/18 27/37/18
f 27/37/19 28/36/19 30/38/19 29/39/19
f 14/40/20 12/41/20 32/42/20 30/43/20 28/44/20 26/45/20 24/46/20 22/47/20 20/48/20 18/49/20 16/50/20
f 29/39/21 30/38/21 32/51/21 31/52/21
f 31/52/22 32/51/22 12/53/22 11/54/22
f 11/55/23 13/56/23 15/57/23 17/58/23 19/59/23 21/60/23 23/61/23 25/62/23 27/63/23 29/64/23 31/65/23
