# Blender 3.6.2
# www.blender.org
mtllib my_cube.mtl
o Cube
v 1.000000 1.000000 -1.000000 1.0000 0.0745 0.0627
v 1.000000 -1.000000 -1.000000 1.0000 0.0745 0.0627
v -1.000000 1.000000 -1.000000 1.0000 0.1333 0.1255
v -1.000000 -1.000000 -1.000000 1.0000 0.0745 0.0627
vn -0.0000 -0.0000 -1.0000
vt 0.375000 0.250000
vt 0.625000 0.250000
vt 0.625000 0.500000
vt 0.375000 0.500000
s 0
f 1/1/1 2/2/1 4/3/1 3/4/1
o Cube.001
v 1.000000 -1.000000 1.000000 1.0000 0.9451 0.0078
v 1.000000 -1.000000 -1.000000 1.0000 0.9451 0.0039
v -1.000000 -1.000000 1.000000 1.0000 0.9568 0.4550
v -1.000000 -1.000000 -1.000000 1.0000 0.9451 0.0902
vn -0.0000 -1.0000 -0.0000
vt 0.625000 0.500000
vt 0.875000 0.500000
vt 0.875000 0.750000
vt 0.625000 0.750000
s 0
f 8/5/2 6/6/2 5/7/2 7/8/2
o Cube.002
v -1.000000 1.000000 1.000000 0.0000 1.0000 0.0078
v -1.000000 -1.000000 1.000000 0.0000 1.0000 0.0078
v -1.000000 1.000000 -1.000000 0.0000 1.0000 0.0078
v -1.000000 -1.000000 -1.000000 0.0078 1.0000 0.0118
vn -1.0000 -0.0000 -0.0000
vt 0.375000 0.500000
vt 0.625000 0.500000
vt 0.625000 0.750000
vt 0.375000 0.750000
s 0
f 11/9/3 12/10/3 10/11/3 9/12/3
o Cube.003
v 1.000000 1.000000 1.000000 0.1451 0.1255 1.0000
v 1.000000 -1.000000 1.000000 0.1451 0.1255 1.0000
v -1.000000 1.000000 1.000000 0.3804 0.3765 1.0000
v -1.000000 -1.000000 1.000000 0.1922 0.1765 1.0000
vn -0.0000 -0.0000 1.0000
vt 0.375000 0.750000
vt 0.625000 0.750000
vt 0.625000 1.000000
vt 0.375000 1.000000
s 0
f 15/13/4 16/14/4 14/15/4 13/16/4
o Cube.004
v 1.000000 1.000000 1.000000 1.0000 0.2078 0.8862
v 1.000000 1.000000 -1.000000 1.0000 0.3490 0.8980
v -1.000000 1.000000 1.000000 1.0000 0.1922 0.8862
v -1.000000 1.000000 -1.000000 1.0000 0.2706 0.8902
vn -0.0000 1.0000 -0.0000
vt 0.125000 0.500000
vt 0.375000 0.500000
vt 0.375000 0.750000
vt 0.125000 0.750000
s 0
f 18/17/5 20/18/5 19/19/5 17/20/5
o Cube.005
v 1.000000 1.000000 1.000000
v 1.000000 -1.000000 1.000000
v 1.000000 1.000000 -1.000000
v 1.000000 -1.000000 -1.000000
vn 1.0000 -0.0000 -0.0000
vt 0.375000 0.000000
vt 0.625000 0.000000
vt 0.625000 0.250000
vt 0.375000 0.250000
s 0
f 21/21/6 22/22/6 24/23/6 23/24/6
